<?xml version="1.0" ?><svg viewBox="0 0 64 64" xmlns="http://www.w3.org/2000/svg"><defs><style>.cls-1,.cls-2{fill:none;stroke:#000;stroke-linejoin:round;stroke-width:2px;}.cls-1{stroke-linecap:round;}</style></defs><g id="leg-meat"><circle cx="37.1974" cy="51.2813" r="1.0691"/><path class="cls-1" d="M21.4166,38.8408l-9.7407,9.7406a4,4,0,1,0-2.56,6.8028,3.9931,3.9931,0,1,0,6.8028-2.56l9.7492-9.7492"/><circle class="cls-1" cx="46" cy="45" r="2"/><path class="cls-1" d="M30.5739,17.764a20.3607,20.3607,0,0,1-5.6,10.4294L22.18,30.9871l-2.4284,2.4284-.8095.8095A2.29,2.29,0,1,0,22.18,37.463a2.29,2.29,0,0,0,0,3.2379l1.619,1.619a2.29,2.29,0,0,0,3.2379,0,2.29,2.29,0,1,0,3.238,3.2379l.8095-.8095L33.5129,42.32l2.7936-2.7936a20.63,20.63,0,0,1,10.4964-5.6137,13.6257,13.6257,0,0,0,6.8583-3.647A13.7374,13.7374,0,1,0,34.3224,10.75,13.6282,13.6282,0,0,0,30.5739,17.764Z"/><line class="cls-1" x1="15.966" x2="12.784" y1="11.892" y2="15.074"/><line class="cls-1" x1="12.784" x2="15.966" y1="11.892" y2="15.074"/><circle cx="15.1974" cy="25.2813" r="1.0691"/><path class="cls-2" d="M45.9948,6.8976C45.9954,6.932,46,6.9654,46,7a6,6,0,0,1-6,6,5.934,5.934,0,0,1-2.2666-.4606,4.9416,4.9416,0,0,1-6.54,3.1111"/><circle cx="42.0815" cy="28.7825" r="1.1324"/><circle cx="45.0815" cy="26.7825" r="1.1324"/><circle cx="46.0815" cy="22.7825" r="1.1324"/><circle cx="46.0815" cy="29.7825" r="1.1324"/><circle cx="49.0815" cy="27.7825" r="1.1324"/><circle cx="49.0815" cy="24.7825" r="1.1324"/><circle cx="53.0815" cy="24.7825" r="1.1324"/><circle cx="51.0815" cy="21.7825" r="1.1324"/></g></svg>